<svg xmlns="http://www.w3.org/2000/svg" viewBox="0 0 1180 610" width="1180" height="610">
  <defs>
    <!-- ==================== GRADIENTS & STYLES ==================== -->
    <linearGradient id="bgGrad" x1="0%" y1="0%" x2="100%" y2="100%">
      <stop offset="0%" stop-color="#000000"/>
      <stop offset="50%" stop-color="#050505"/>
      <stop offset="100%" stop-color="#000000"/>
    </linearGradient>

    <linearGradient id="accentGrad" x1="0%" y1="0%" x2="100%" y2="100%">
      <stop offset="0%" stop-color="#7C3AED">
        <animate attributeName="stop-color" values="#7C3AED;#22D3EE;#10B981;#7C3AED" dur="8s" repeatCount="indefinite"/>
      </stop>
      <stop offset="50%" stop-color="#22D3EE">
        <animate attributeName="stop-color" values="#22D3EE;#10B981;#7C3AED;#22D3EE" dur="8s" repeatCount="indefinite"/>
      </stop>
      <stop offset="100%" stop-color="#10B981">
        <animate attributeName="stop-color" values="#10B981;#7C3AED;#22D3EE;#10B981" dur="8s" repeatCount="indefinite"/>
      </stop>
    </linearGradient>

    <linearGradient id="asciiGrad" x1="0%" y1="0%" x2="100%" y2="100%">
      <stop offset="0%" stop-color="#06B6D4">
        <animate attributeName="stop-color" values="#06B6D4;#A855F7;#22D3EE;#06B6D4" dur="6s" repeatCount="indefinite"/>
      </stop>
      <stop offset="100%" stop-color="#A855F7">
        <animate attributeName="stop-color" values="#A855F7;#22D3EE;#06B6D4;#A855F7" dur="6s" repeatCount="indefinite"/>
      </stop>
    </linearGradient>

    <linearGradient id="borderGrad" x1="0%" y1="0%" x2="100%" y2="0%">
      <stop offset="0%" stop-color="rgba(124,58,237,0)"/>
      <stop offset="50%" stop-color="rgba(34,211,238,0.4)">
        <animate attributeName="offset" values="0;1;0" dur="4s" repeatCount="indefinite"/>
      </stop>
      <stop offset="100%" stop-color="rgba(124,58,237,0)"/>
    </linearGradient>

    <linearGradient id="scanlineGrad" x1="0%" y1="0%" x2="0%" y2="100%">
      <stop offset="0%" stop-color="rgba(34,211,238,0)"/>
      <stop offset="45%" stop-color="rgba(34,211,238,0)"/>
      <stop offset="50%" stop-color="rgba(34,211,238,0.06)"/>
      <stop offset="55%" stop-color="rgba(34,211,238,0)"/>
      <stop offset="100%" stop-color="rgba(34,211,238,0)"/>
    </linearGradient>

    <!-- Background Glows -->
    <radialGradient id="glowPurple" cx="15%" cy="30%" r="45%">
      <stop offset="0%" stop-color="rgba(124,58,237,0.08)"/>
      <stop offset="100%" stop-color="rgba(124,58,237,0)"/>
    </radialGradient>
    <radialGradient id="glowCyan" cx="85%" cy="75%" r="40%">
      <stop offset="0%" stop-color="rgba(34,211,238,0.07)"/>
      <stop offset="100%" stop-color="rgba(34,211,238,0)"/>
    </radialGradient>

    <!-- Filters -->
    <filter id="glow" x="-20%" y="-20%" width="140%" height="140%">
      <feGaussianBlur stdDeviation="3" result="blur"/>
      <feComposite in="SourceGraphic" in2="blur" operator="over"/>
    </filter>
    <filter id="textGlow">
      <feGaussianBlur stdDeviation="2" result="blur"/>
      <feMerge><feMergeNode in="blur"/><feMergeNode in="SourceGraphic"/></feMerge>
    </filter>
    <filter id="iconGlow">
      <feGaussianBlur stdDeviation="1.5" result="blur"/>
      <feMerge><feMergeNode in="blur"/><feMergeNode in="SourceGraphic"/></feMerge>
    </filter>
    <filter id="noise" x="0%" y="0%" width="100%" height="100%">
      <feTurbulence type="fractalNoise" baseFrequency="0.8" numOctaves="3" stitchTiles="stitch" result="noise"/>
      <feColorMatrix type="saturate" values="0" in="noise" result="grayNoise"/>
      <feBlend in="SourceGraphic" in2="grayNoise" mode="overlay" result="blend"/>
      <feComponentTransfer><feFuncA type="linear" slope="0.025"/></feComponentTransfer>
    </filter>

    <clipPath id="roundClip">
      <rect x="0" y="0" width="1180" height="610" rx="16" ry="16"/>
    </clipPath>
    <mask id="asciiReveal">
      <rect x="0" y="0" width="410" height="550" fill="white">
        <animate attributeName="height" from="0" to="550" dur="2s" begin="0.5s" fill="freeze"/>
      </rect>
    </mask>
  </defs>

  <!-- ==================== MAIN CANVAS ==================== -->
  <g clip-path="url(#roundClip)">
    <!-- Pure Black Background & Subtle Glows -->
    <rect width="1180" height="610" fill="url(#bgGrad)"/>
    <rect width="1180" height="610" fill="url(#glowPurple)"/>
    <rect width="1180" height="610" fill="url(#glowCyan)"/>

    <!-- Noise & Scanline -->
    <rect width="1180" height="610" fill="transparent" filter="url(#noise)" opacity="0.45"/>
    <rect width="1180" height="610" fill="url(#scanlineGrad)">
      <animateTransform attributeName="transform" type="translate" values="0,-610;0,610" dur="6s" repeatCount="indefinite"/>
    </rect>

    <!-- Floating Particles -->
    <g opacity="0.35">
      <circle cx="150" cy="120" r="1.2" fill="#22D3EE"><animate attributeName="cy" values="120;90;120" dur="8s" repeatCount="indefinite"/><animate attributeName="opacity" values="0.2;0.8;0.2" dur="5s" repeatCount="indefinite"/></circle>
      <circle cx="350" cy="480" r="0.8" fill="#7C3AED"><animate attributeName="cy" values="480;450;480" dur="6s" repeatCount="indefinite"/><animate attributeName="opacity" values="0.1;0.7;0.1" dur="4s" repeatCount="indefinite"/></circle>
      <circle cx="580" cy="180" r="1" fill="#10B981"><animate attributeName="cy" values="180;155;180" dur="7s" repeatCount="indefinite"/><animate attributeName="opacity" values="0.3;0.9;0.3" dur="5.5s" repeatCount="indefinite"/></circle>
      <circle cx="820" cy="420" r="0.9" fill="#22D3EE"><animate attributeName="cy" values="420;395;420" dur="9s" repeatCount="indefinite"/><animate attributeName="opacity" values="0.2;0.6;0.2" dur="6s" repeatCount="indefinite"/></circle>
    </g>

    <!-- ==================== LEFT PANEL: SYSTEM TERMINAL (38%) ==================== -->
    <g transform="translate(30, 30)">
      <!-- Panel Base -->
      <rect x="0" y="0" width="410" height="550" rx="14" ry="14" fill="#0A0A0A" stroke="rgba(255,255,255,0.06)" stroke-width="1"/>
      <rect x="1" y="1" width="408" height="30" rx="14" ry="14" fill="#0F0F0F"/>

      <!-- Controls -->
      <g transform="translate(16, 15)">
        <circle cx="0" cy="0" r="5" fill="#EF4444" opacity="0.8"/>
        <circle cx="16" cy="0" r="5" fill="#F59E0B" opacity="0.8"/>
        <circle cx="32" cy="0" r="5" fill="#10B981" opacity="0.8"/>
        <text x="55" y="4" font-family="'SF Mono','Fira Code',monospace" font-size="11" fill="#4B5563">synapsense_logo.sh</text>
      </g>

      <!-- ASCII Logo Portrait (Perfect Center alignment and user provided custom ASCII Art) -->
      <g mask="url(#asciiReveal)" filter="url(#textGlow)">
        <g fill="url(#asciiGrad)" font-family="'SF Mono','Fira Code','Cascadia Code','Courier New',monospace" font-size="8.1" text-anchor="middle" xml:space="preserve">
          <animateTransform attributeName="transform" type="translate" values="0,0;0,-4;0,0" dur="6s" repeatCount="indefinite"/>

          <text x="205" y="80.0" textLength="289.1" lengthAdjust="spacing">&#160;&#160;&#160;&#160;&#160;&#160;&#160;&#160;&#160;&#160;&#160;&#160;&#160;..&#160;&#160;&#160;&#160;&#160;&#160;&#160;&#160;&#160;&#160;&#160;&#160;&#160;&#160;&#160;&#160;&#160;&#160;&#160;&#160;&#160;&#160;&#160;&#160;&#160;&#160;&#160;&#160;&#160;&#160;&#160;&#160;&#160;&#160;&#160;&#160;&#160;&#160;&#160;&#160;&#160;&#160;&#160;&#160;</text>
          <text x="205" y="91.2" textLength="289.1" lengthAdjust="spacing">&#160;&#160;&#160;&#160;&#160;&#160;&#160;&#160;&#160;&#160;,=&#8805;&#8805;&#8721;&#8800;!.&#160;&#160;&#160;&#160;&#160;&#160;&#160;&#160;&#160;&#160;&#160;&#160;&#160;&#160;&#160;&#160;&#160;&#160;&#160;&#160;&#160;&#160;&#160;&#160;&#160;&#160;&#160;&#160;&#160;&#160;&#160;&#160;&#160;&#160;&#160;&#160;&#160;&#160;&#160;&#160;&#160;</text>
          <text x="205" y="102.4" textLength="289.1" lengthAdjust="spacing">&#160;&#160;&#160;&#160;&#160;&#160;&#160;&#160;&#160;.&#8747;&#8776;,&#160;&#160;I&#8776;&#8804;&gt;;;:::::,,,,.&#160;&#160;&#160;&#160;&#160;&#160;&#160;&#160;&#160;&#160;&#160;&#160;&#160;&#160;&#160;&#160;&#160;&#160;&#160;&#160;&#160;&#160;&#160;&#160;&#160;&#160;&#160;&#160;</text>
          <text x="205" y="113.6" textLength="289.1" lengthAdjust="spacing">&#160;&#160;&#160;&#160;&#160;&#160;&#160;&#160;&#160;&gt;&#8719;&#160;&#160;&#160;&#160;&#160;&#160;;=&#247;&#247;&#177;&#177;&#177;&#177;&#8776;&#8776;&#8776;&#8800;&#8804;&#8805;&#177;&gt;;.&#160;&#160;&#160;&#160;&#160;&#160;&#160;&#160;&#160;&#160;&#160;&#160;&#160;&#160;&#160;&#160;&#160;&#160;&#160;&#160;&#160;&#160;&#160;&#160;</text>
          <text x="205" y="124.8" textLength="289.1" lengthAdjust="spacing">&#160;&#160;&#160;&#160;&#160;&#160;&#160;&#160;&#160;!&#176;:&#160;&#160;&#160;&#160;&#160;&#160;&#160;&#160;&#160;&#160;&#160;&#160;&#160;&#160;&#160;&#160;&#160;&#160;&#160;;+&#8800;&#8804;l&#160;&#160;&#160;&#160;&#160;&#160;&#160;&#160;&#160;&#160;&#160;&#160;&#160;&#160;&#160;&#160;&#160;&#160;&#160;&#160;&#160;&#160;&#160;</text>
          <text x="205" y="136.0" textLength="289.1" lengthAdjust="spacing">&#160;&#160;&#160;&#160;&#160;&#160;&#160;&#160;&#160;&#160;&#8730;&#177;&#160;&#160;&#160;&#160;&#160;&#160;&#160;&#160;&#160;&#160;&#160;&#160;&#160;&#160;&#160;&#160;&#160;&#160;&#160;&#160;&#160;!&#8800;&lt;&#160;&#160;&#160;&#160;&#160;&#160;&#160;&#160;&#160;&#160;&#160;&#160;&#160;&#160;&#160;&#160;&#160;&#160;&#160;&#160;&#160;&#160;&#160;</text>
          <text x="205" y="147.2" textLength="289.1" lengthAdjust="spacing">&#160;&#160;&#160;&#160;&#160;&#160;&#160;&#160;&#160;&#160;&#8800;&#8800;&#160;&#160;&#160;&#160;i&#8776;&#8800;&#8800;&#8800;&#8800;&#8800;&#8800;&#8800;&#8800;&#8800;&#8804;&#247;&#160;&#160;&#160;&#160;!&#8800;&lt;&#160;&#160;&#160;&#160;&#160;&#160;&#160;&#160;&#160;&#160;&#160;.::.&#160;&#160;&#160;&#160;&#160;&#160;&#160;&#160;</text>
          <text x="205" y="158.4" textLength="289.1" lengthAdjust="spacing">&#160;&#160;&#160;&#160;&#160;&#160;&#160;&#160;&#160;&#160;&#8800;&#8800;&#160;&#160;&#160;&#160;!&#8730;i,,,,,,,:=&#8721;&#160;&#160;&#160;&#160;l&#8800;&lt;&#160;&#160;&#160;,,,,,,;&gt;&#8721;&#8226;&#8226;&#8730;!&#160;&#160;&#160;&#160;&#160;&#160;&#160;</text>
          <text x="205" y="169.6" textLength="289.1" lengthAdjust="spacing">&#160;&#160;&#160;&#160;&#160;&#160;&#160;&#160;&#160;&#160;&#8776;&#8804;&#160;&#160;&#160;&#160;!&#8730;:&#160;&#160;&#160;&#160;&#160;&#160;&#160;.-&#8721;&#160;&#160;&#160;&#160;l&#8800;+l&#215;&#8721;&#8719;&#176;&#176;&#8902;&#8902;&#8902;&#8226;&#9702;&#9830;&#9830;&#9835;&#9702;&#8805;;&#160;&#160;&#160;&#160;&#160;&#160;</text>
          <text x="205" y="180.8" textLength="289.1" lengthAdjust="spacing">&#160;&#160;&#160;&#160;&#160;&#160;&#160;&#160;&#160;&#160;&#8776;&#8805;&#160;&#160;&#160;&#160;!&#8747;I.&#160;&#160;&#160;&#160;&#160;&#160;.+&#8721;,&#160;&#160;&#160;l&#8800;&#177;&#8706;&#9830;&#9830;&#9830;&#9835;&#9835;&#9835;&#9835;&#9835;&#9835;&#9835;&#9835;&#9835;&#9835;&#9702;&#177;:&#160;&#160;&#160;&#160;&#160;&#160;</text>
          <text x="205" y="192.0" textLength="289.1" lengthAdjust="spacing">&#160;&#160;&#160;&#160;&#160;&#160;&#160;&#160;&#160;&#160;&#177;&#8721;&#160;&#160;&#160;&#160;,+&#8776;&#8800;&#215;!:&#160;&#160;&#160;&#160;:&#247;&#8804;-;.l&#8800;&#177;&#8711;&#9830;&#9830;&#9830;&#8226;&#8706;&#8730;&#8730;&#8730;&#8747;&#8902;&#9830;&#9835;&#9835;&#8226;=.&#160;&#160;&#160;&#160;&#160;&#160;</text>
          <text x="205" y="203.2" textLength="289.1" lengthAdjust="spacing">&#160;&#160;&#160;&#160;&#160;&#160;&#160;&#160;&#160;&#160;&#247;&#8730;,&#160;&#160;&#160;&#160;&#160;&#160;,l=&#8800;&#8776;=l,&#160;&#160;;-&#8800;&#8800;&#8800;&#8800;&#247;&#8711;&#9830;&#9830;&#9830;&#8706;!&#160;&#160;&#160;i&#8804;&#9702;&#9835;&#9835;&#8226;-.&#160;&#160;&#160;&#160;&#160;&#160;</text>
          <text x="205" y="214.4" textLength="289.1" lengthAdjust="spacing">&#160;&#160;&#160;&#160;&#160;&#160;&#160;&#160;&#160;&#160;;&#177;&#8804;&#247;&lt;:.&#160;&#160;&#160;&#160;&#160;&#160;:&lt;&#247;&#8800;&#177;+i..,;,l&#8706;&#9830;&#9830;&#8226;&#8804;i.;&gt;&#8800;&#176;&#9830;&#9835;&#9835;&#8226;-.&#160;&#160;&#160;&#160;&#160;&#160;</text>
          <text x="205" y="225.6" textLength="289.1" lengthAdjust="spacing">&#160;&#160;&#160;&#160;&#160;&#160;&#160;&#160;&#160;&#160;&#160;&#160;,I=&#8800;&#8776;=I,&#160;&#160;&#160;&#160;&#160;&#160;.i+&#8776;&#8800;&#247;&lt;;.;&#177;&#8730;&#8800;+&gt;&#247;&#8730;&#8902;&#9830;&#9830;&#9830;&#9830;&#9830;&#9830;&#8719;&lt;&#160;&#160;&#160;&#160;&#160;&#160;&#160;</text>
          <text x="205" y="236.8" textLength="289.1" lengthAdjust="spacing">&#160;&#160;&#160;&#160;&#160;&#160;&#160;&#160;&#160;&#160;,:.&#160;&#160;&#160;:&lt;&#247;&#8800;&#177;+i.&#160;&#160;&#160;&#160;&#160;&#160;,l-&#8800;&#177;lI=&#8805;&#176;&#9702;&#9830;&#9830;&#9830;&#9830;&#9830;&#9702;&#8719;&#8805;-i.&#160;&#160;&#160;&#160;&#160;&#160;&#160;</text>
          <text x="205" y="248.0" textLength="289.1" lengthAdjust="spacing">&#160;&#160;&#160;&#160;&#160;&#160;&#160;&#160;&#160;&#160;&#8805;&#8706;&#8800;&#215;l,&#160;&#160;&#160;.i+&#8776;&#8800;&#215;!:&#160;&#160;&#160;&#160;&#160;&#160;I&#8800;&#8776;&#8706;&#9830;&#9830;&#9830;&#9830;&#9830;&#9702;&#8902;&#8730;&#247;!I!&#247;&#8804;&lt;.&#160;&#160;&#160;&#160;&#160;&#160;</text>
          <text x="205" y="259.2" textLength="289.1" lengthAdjust="spacing">&#160;&#160;&#160;&#160;&#160;&#160;&#160;&#160;&#160;&#160;l&#8730;&#247;&lt;&#215;&#8800;&#177;+i.&#160;&#160;&#160;:l&#215;&#8800;&#8776;&lt;&#160;&#160;&#160;&#160;I&#8776;&#8800;&#8719;&#9830;&#9830;&#9830;&#8226;&#8805;&gt;;;+&#8805;&#8719;&#9702;&#9830;&#8721;I&#160;&#160;&#160;&#160;&#160;&#160;&#160;</text>
          <text x="205" y="270.4" textLength="289.1" lengthAdjust="spacing">&#160;&#160;&#160;&#160;&#160;&#160;&#160;&#160;&#160;&#160;&#160;I&#8805;&#215;..i+&#8776;&#8804;l&#160;&#160;&#160;&#160;&#160;:&#247;&#8804;&#160;&#160;&#160;&#160;i&#8776;&#8800;&#8719;&#9830;&#9830;&#9830;&#8719;&lt;&#160;;&#8776;&#8902;&#9830;&#9830;&#9830;&#8805;i&#160;&#160;&#160;&#160;&#160;&#160;&#160;&#160;</text>
          <text x="205" y="281.6" textLength="289.1" lengthAdjust="spacing">&#160;&#160;&#160;&#160;&#160;&#160;&#160;&#160;&#160;&#160;&#160;&#160;I&#8804;-.&#160;&#160;.&lt;&#8730;&gt;&#160;&#160;&#160;&#160;,=&#8804;&#160;&#160;&#160;&#160;i&#8776;&#8804;&#8719;&#9830;&#9830;&#9830;&#8902;&#215;I&#8776;&#8226;&#9830;&#9830;&#9830;&#8721;i&#160;&#160;&#160;&#160;&#160;&#160;&#160;&#160;&#160;</text>
          <text x="205" y="292.8" textLength="289.1" lengthAdjust="spacing">&#160;&#160;&#160;&#160;&#160;&#160;&#160;&#160;&#160;&#160;&#160;&#160;&#160;l&#8804;&gt;.&#160;&#160;&#160;!&#8721;+&#160;&#160;&#160;,=&#8804;&#160;&#160;&#160;&#160;i&#8776;&#8800;&#8747;&#9702;&#9830;&#9830;&#9830;&#9702;&#8902;&#8226;&#9830;&#9835;&#9830;&#8730;l&#160;&#160;&#160;&#160;&#160;&#160;&#160;&#160;&#160;&#160;</text>
          <text x="205" y="304.0" textLength="289.1" lengthAdjust="spacing">&#160;&#160;&#160;&#160;&#160;&#160;&#160;&#160;&#160;&#160;&#160;&#160;&#160;&#160;&lt;&#8805;&gt;&#160;&#160;&#160;&#160;!&#8805;&gt;&#160;,&gt;&#8804;&#215;&#160;&#160;&#160;&#160;i&#8776;=i-&#8706;&#9830;&#9830;&#9830;&#9830;&#9835;&#9830;&#9830;&#8706;!&#160;&#160;&#160;&#160;&#160;&#160;&#160;&#160;&#160;&#160;&#160;</text>
          <text x="205" y="315.2" textLength="289.1" lengthAdjust="spacing">&#160;&#160;&#160;&#160;&#160;&#160;&#160;&#160;&#160;&#160;&#160;&#160;&#160;&#160;.&gt;&#8805;!&#160;&#160;&#160;.&gt;&#8805;&#247;&#8776;&#177;l.&#160;&#160;&#160;&#160;l&#8800;-.&#160;;&#8776;&#8226;&#9830;&#9835;&#9830;&#9830;&#8719;-.&#160;&#160;&#160;&#160;&#160;&#160;&#160;&#160;&#160;&#160;&#160;</text>
          <text x="205" y="326.4" textLength="289.1" lengthAdjust="spacing">&#160;&#160;&#160;&#160;&#160;&#160;&#160;&#160;&#160;&#160;&#160;&#160;&#160;&#160;&#160;.+&#8721;i&#160;&#160;&#160;,-&#8804;&lt;.&#160;&#160;&#160;&#160;I&#247;&#8800;-:&#160;&#160;&#160;.&#247;&#8226;&#9835;&#9835;&#8226;&#8776;;&#160;&#160;&#160;&#160;&#160;&#160;&#160;&#160;&#160;&#160;&#160;&#160;</text>
          <text x="205" y="337.6" textLength="289.1" lengthAdjust="spacing">&#160;&#160;&#160;&#160;&#160;&#160;&#160;&#160;&#160;&#160;&#160;&#160;&#160;&#160;&#160;&#160;.&#215;&#8805;:&#160;&#160;&#160;&#160;.&#160;&#160;&#160;&#160;;&#177;&#8804;&gt;,&#160;&#160;&#160;&#160;&#160;&#160;;&#8721;&#9830;&#9830;&#8747;!&#160;&#160;&#160;&#160;&#160;&#160;&#160;&#160;&#160;&#160;&#160;&#160;&#160;</text>
          <text x="205" y="348.8" textLength="289.1" lengthAdjust="spacing">&#160;&#160;&#160;&#160;&#160;&#160;&#160;&#160;&#160;&#160;&#160;&#160;&#160;&#160;&#160;&#160;&#160;,&#8800;&#8800;.&#160;&#160;&#160;&#160;&#160;&#160;.&gt;&#8721;-,&#160;&#160;&#160;&#160;&#160;&#160;&#160;&#160;&#160;-&#176;&#8902;&#215;,&#160;&#160;&#160;&#160;&#160;&#160;&#160;&#160;&#160;&#160;&#160;&#160;&#160;</text>
          <text x="205" y="360.0" textLength="289.1" lengthAdjust="spacing">&#160;&#160;&#160;&#160;&#160;&#160;&#160;&#160;&#160;&#160;&#160;&#160;&#160;&#160;&#160;&#160;&#160;&#160;;&#8730;-&#160;&#160;&#160;&#160;&#160;,-&#8805;I&#160;&#160;&#160;&#160;&#160;&#160;&#160;&#160;&#160;&#160;&#160;:&#215;&#247;;&#160;&#160;&#160;&#160;&#160;&#160;&#160;&#160;&#160;&#160;&#160;&#160;&#160;&#160;</text>
          <text x="205" y="371.2" textLength="289.1" lengthAdjust="spacing">&#160;&#160;&#160;&#160;&#160;&#160;&#160;&#160;&#160;&#160;&#160;&#160;&#160;&#160;&#160;&#160;&#160;&#160;.&gt;&#8747;;&#160;&#160;&#160;.-&#8804;I&#160;&#160;&#160;&#160;&#160;&#160;&#160;&#160;&#160;&#160;&#160;&#160;&#160;&#160;&#160;&#160;&#160;&#160;&#160;&#160;&#160;&#160;&#160;&#160;&#160;&#160;&#160;&#160;&#160;&#160;</text>
          <text x="205" y="382.4" textLength="289.1" lengthAdjust="spacing">&#160;&#160;&#160;&#160;&#160;&#160;&#160;&#160;&#160;&#160;&#160;&#160;&#160;&#160;&#160;&#160;&#160;&#160;&#160;,&#8776;&#8800;&#160;&#160;&#160;l&#8805;&lt;&#160;&#160;&#160;&#160;&#160;&#160;&#160;&#160;&#160;&#160;&#160;&#160;&#160;&#160;&#160;&#160;&#160;&#160;&#160;&#160;&#160;&#160;&#160;&#160;&#160;&#160;&#160;&#160;&#160;&#160;&#160;</text>
          <text x="205" y="393.6" textLength="289.1" lengthAdjust="spacing">&#160;&#160;&#160;&#160;&#160;&#160;&#160;&#160;&#160;&#160;&#160;&#160;&#160;&#160;&#160;&#160;&#160;&#160;&#160;&#160;I&#8730;&gt;&#160;,&#247;&#177;:&#160;&#160;&#160;&#160;&#160;&#160;&#160;&#160;&#160;&#160;&#160;&#160;&#160;&#160;&#160;&#160;&#160;&#160;&#160;&#160;&#160;&#160;&#160;&#160;&#160;&#160;&#160;&#160;&#160;&#160;&#160;</text>
          <text x="205" y="404.8" textLength="289.1" lengthAdjust="spacing">&#160;&#160;&#160;&#160;&#160;&#160;&#160;&#160;&#160;&#160;&#160;&#160;&#160;&#160;&#160;&#160;&#160;&#160;&#160;&#160;.-&#8805;;!&#8804;l&#160;&#160;&#160;&#160;&#160;&#160;&#160;&#160;&#160;&#160;&#160;&#160;&#160;&#160;&#160;&#160;&#160;&#160;&#160;&#160;&#160;&#160;&#160;&#160;&#160;&#160;&#160;&#160;&#160;&#160;&#160;&#160;</text>
          <text x="205" y="416.0" textLength="289.1" lengthAdjust="spacing">&#160;&#160;&#160;&#160;&#160;&#160;&#160;&#160;&#160;&#160;&#160;&#160;&#160;&#160;&#160;&#160;&#160;&#160;&#160;&#160;&#160;;&#8800;&#8776;&#177;&#247;,&#160;&#160;&#160;&#160;&#160;&#160;&#160;&#160;&#160;&#160;&#160;&#160;&#160;&#160;&#160;&#160;&#160;&#160;&#160;&#160;&#160;&#160;&#160;&#160;&#160;&#160;&#160;&#160;&#160;&#160;&#160;&#160;</text>
          <text x="205" y="427.2" textLength="289.1" lengthAdjust="spacing">&#160;&#160;&#160;&#160;&#160;&#160;&#160;&#160;&#160;&#160;&#160;&#160;&#160;&#160;&#160;&#160;&#160;&#160;&#160;&#160;&#160;&#160;&lt;&#8706;&#8730;l&#160;&#160;&#160;&#160;&#160;&#160;&#160;&#160;&#160;&#160;&#160;&#160;&#160;&#160;&#160;&#160;&#160;&#160;&#160;&#160;&#160;&#160;&#160;&#160;&#160;&#160;&#160;&#160;&#160;&#160;&#160;&#160;&#160;</text>
          <text x="205" y="438.4" textLength="289.1" lengthAdjust="spacing">&#160;&#160;&#160;&#160;&#160;&#160;&#160;&#160;&#160;&#160;&#160;&#160;&#160;&#160;&#160;&#160;&#160;&#160;&#160;&#160;&#160;&#160;&#160;..&#160;&#160;&#160;&#160;&#160;&#160;&#160;&#160;&#160;&#160;&#160;&#160;&#160;&#160;&#160;&#160;&#160;&#160;&#160;&#160;&#160;&#160;&#160;&#160;&#160;&#160;&#160;&#160;&#160;&#160;&#160;&#160;&#160;&#160;</text>
        </g>
      </g>

      <!-- Command Line prompt -->
      <g transform="translate(25, 510)" opacity="0">
        <animate attributeName="opacity" to="1" begin="1.5s" dur="0.3s" fill="freeze"/>
        <text x="0" y="0" font-family="'SF Mono','Fira Code',monospace" font-size="11" fill="#4B5563">pranshul@edge:~$ <tspan fill="#F8FAFC">cat synapsense_logo.txt</tspan></text>
        <rect x="260" y="-11" width="6" height="13" fill="#10B981">
          <animate attributeName="opacity" values="1;0;1" dur="1s" repeatCount="indefinite"/>
        </rect>
      </g>
    </g>

    <!-- ==================== RIGHT PANEL: PROFILE DETAILS (62%) ==================== -->
    <g transform="translate(470, 30)">
      <!-- Panel Base -->
      <rect x="0" y="0" width="680" height="550" rx="14" ry="14" fill="#0A0A0A" stroke="rgba(255,255,255,0.06)" stroke-width="1"/>
      <rect x="1" y="1" width="678" height="160" rx="14" ry="14" fill="rgba(255,255,255,0.005)"/>
      <rect x="0" y="0" width="680" height="550" rx="14" ry="14" fill="none" stroke="url(#borderGrad)" stroke-width="1" opacity="0.3"/>

      <!-- Header Controls -->
      <g transform="translate(16, 15)">
        <circle cx="0" cy="0" r="5" fill="#EF4444" opacity="0.8"/>
        <circle cx="16" cy="0" r="5" fill="#F59E0B" opacity="0.8"/>
        <circle cx="32" cy="0" r="5" fill="#10B981" opacity="0.8"/>
        <text x="55" y="4" font-family="'SF Mono','Fira Code',monospace" font-size="11" fill="#4B5563">profile_info.md</text>
      </g>

      <!-- ===== GREETING & TYPING EFFECTS ===== -->
      <g transform="translate(28, 56)">
        <!-- Konnichiwa Watashi Wa -->
        <text x="0" y="16" font-family="'Inter','Segoe UI',sans-serif" font-size="24" fill="#F8FAFC" font-weight="700" opacity="0">
          <tspan>Konnichiwa, watashi wa Pranshul Mishra</tspan>
          <animate attributeName="opacity" from="0" to="1" begin="0.4s" dur="0.6s" fill="freeze"/>
        </text>

        <!-- Typing role list -->
        <g transform="translate(0, 38)">
          <!-- Role 1: Fullstack Developer -->
          <text x="18" y="12" font-family="'SF Mono','Fira Code',monospace" font-size="15" fill="url(#accentGrad)" filter="url(#glow)" opacity="0">
            <tspan>> Fullstack Developer</tspan>
            <animate attributeName="opacity" values="0;1;1;0;0" dur="24s" begin="1s" repeatCount="indefinite" keyTimes="0;0.01;0.10;0.12;1"/>
          </text>
          <!-- Role 2: AI Agents -->
          <text x="18" y="12" font-family="'SF Mono','Fira Code',monospace" font-size="15" fill="url(#accentGrad)" filter="url(#glow)" opacity="0">
            <tspan>> AI Agents</tspan>
            <animate attributeName="opacity" values="0;0;1;1;0;0" dur="24s" begin="1s" repeatCount="indefinite" keyTimes="0;0.12;0.13;0.23;0.25;1"/>
          </text>
          <!-- Role 3: Agentic System -->
          <text x="18" y="12" font-family="'SF Mono','Fira Code',monospace" font-size="15" fill="url(#accentGrad)" filter="url(#glow)" opacity="0">
            <tspan>> Agentic System</tspan>
            <animate attributeName="opacity" values="0;0;1;1;0;0" dur="24s" begin="1s" repeatCount="indefinite" keyTimes="0;0.25;0.26;0.35;0.37;1"/>
          </text>
          <!-- Role 4: Edge AI Architect -->
          <text x="18" y="12" font-family="'SF Mono','Fira Code',monospace" font-size="15" fill="url(#accentGrad)" filter="url(#glow)" opacity="0">
            <tspan>> Edge AI Architect</tspan>
            <animate attributeName="opacity" values="0;0;1;1;0;0" dur="24s" begin="1s" repeatCount="indefinite" keyTimes="0;0.37;0.38;0.48;0.50;1"/>
          </text>
          <!-- Role 5: Founder @ SynapSense -->
          <text x="18" y="12" font-family="'SF Mono','Fira Code',monospace" font-size="15" fill="url(#accentGrad)" filter="url(#glow)" opacity="0">
            <tspan>> Founder @ SynapSense</tspan>
            <animate attributeName="opacity" values="0;0;1;1;0;0" dur="24s" begin="1s" repeatCount="indefinite" keyTimes="0;0.50;0.51;0.60;0.62;1"/>
          </text>
          <!-- Role 6: Systems Architect -->
          <text x="18" y="12" font-family="'SF Mono','Fira Code',monospace" font-size="15" fill="url(#accentGrad)" filter="url(#glow)" opacity="0">
            <tspan>> Systems Architect</tspan>
            <animate attributeName="opacity" values="0;0;1;1;0;0" dur="24s" begin="1s" repeatCount="indefinite" keyTimes="0;0.62;0.63;0.73;0.75;1"/>
          </text>
          <!-- Role 7: Deep Learning Researcher -->
          <text x="18" y="12" font-family="'SF Mono','Fira Code',monospace" font-size="15" fill="url(#accentGrad)" filter="url(#glow)" opacity="0">
            <tspan>> Deep Learning Researcher</tspan>
            <animate attributeName="opacity" values="0;0;1;1;0;0" dur="24s" begin="1s" repeatCount="indefinite" keyTimes="0;0.75;0.76;0.85;0.87;1"/>
          </text>
          <!-- Role 8: Open Source Contributor -->
          <text x="18" y="12" font-family="'SF Mono','Fira Code',monospace" font-size="15" fill="url(#accentGrad)" filter="url(#glow)" opacity="0">
            <tspan>> Open Source Contributor</tspan>
            <animate attributeName="opacity" values="0;0;1;1;0;0" dur="24s" begin="1s" repeatCount="indefinite" keyTimes="0;0.87;0.88;0.97;0.99;1"/>
          </text>

          <!-- Cursor -->
          <path d="M5 4 L11 10 L5 16" fill="none" stroke="url(#accentGrad)" stroke-width="2.5" stroke-linecap="round"/>
          <rect x="235" y="1" width="2" height="14" fill="#22D3EE">
            <animate attributeName="opacity" values="1;0;1" dur="0.8s" repeatCount="indefinite"/>
          </rect>
        </g>
      </g>

      <!-- ===== INFORMATION SECTION ===== -->
      <g transform="translate(28, 130)" font-family="'Inter','Segoe UI',sans-serif" font-size="13">
        <line x1="0" y1="0" x2="624" y2="0" stroke="rgba(255,255,255,0.06)" stroke-width="1"/>

        <!-- Location -->
        <g transform="translate(0, 22)" opacity="0">
          <animate attributeName="opacity" from="0" to="1" begin="1.4s" dur="0.5s" fill="freeze"/>
          <path d="M12 2C8.13 2 5 5.13 5 9c0 5.25 7 13 7 13s7-7.75 7-13c0-3.87-3.13-7-7-7zm0 9.5c-1.38 0-2.5-1.12-2.5-2.5s1.12-2.5 2.5-2.5 2.5 1.12 2.5 2.5-1.12 2.5-2.5 2.5z" fill="#EF4444" transform="scale(0.85) translate(0, -2)"/>
          <text x="22" y="12" fill="#94A3B8">Gorakhpur, India</text>
        </g>

        <!-- Education / Experience -->
        <g transform="translate(0, 46)" opacity="0">
          <animate attributeName="opacity" from="0" to="1" begin="1.7s" dur="0.5s" fill="freeze"/>
          <path d="M12 3L1 9l11 6 9-4.91V17h2V9L12 3zM5.18 11.5L12 15.22l6.82-3.72V17H5.18v-5.5z" fill="#3B82F6" transform="scale(0.85) translate(0, -2)"/>
          <text x="22" y="12" fill="#94A3B8">MMMUT · B.Tech  ·  Research Intern @ NIT Patna</text>
        </g>

        <!-- Current Focus -->
        <g transform="translate(0, 70)" opacity="0">
          <animate attributeName="opacity" from="0" to="1" begin="2.0s" dur="0.5s" fill="freeze"/>
          <path d="M19 3H5c-1.1 0-2 .9-2 2v14c0 1.1.9 2 2 2h14c1.1 0 2-.9 2-2V5c0-1.1-.9-2-2-2zm-2 10h-4v4h-2v-4H7v-2h4V7h2v4h4v2z" fill="#10B981" transform="scale(0.85) translate(0, -2)"/>
          <text x="22" y="12" fill="#94A3B8">Building decentralized Edge AI systems</text>
        </g>

        <!-- Portfolio -->
        <g transform="translate(0, 94)" opacity="0">
          <animate attributeName="opacity" from="0" to="1" begin="2.3s" dur="0.5s" fill="freeze"/>
          <path d="M12 2C6.48 2 2 6.48 2 12s4.48 10 10 10 10-4.48 10-10S17.52 2 12 2zm-1 17.93c-3.95-.49-7-3.85-7-7.93 0-.62.08-1.21.21-1.79L9 15v1c0 1.1.9 2 2 2v1.93zm6.9-2.54c-.26-.81-1-1.39-1.9-1.39h-1v-3c0-.55-.45-1-1-1H8v-2h2c.55 0 1-.45 1-1V7h2c1.1 0 2-.9 2-2v-.41c2.93 1.19 5 4.06 5 7.41 0 2.08-.8 3.97-2.1 5.39z" fill="#06B6D4" transform="scale(0.85) translate(0, -2)"/>
          <text x="22" y="12" fill="#22D3EE" font-weight="600">synapsense.site</text>
        </g>

        <!-- Email -->
        <g transform="translate(0, 118)" opacity="0">
          <animate attributeName="opacity" from="0" to="1" begin="2.6s" dur="0.5s" fill="freeze"/>
          <path d="M20 4H4c-1.1 0-1.99.9-1.99 2L2 18c0 1.1.9 2 2 2h16c1.1 0 2-.9 2-2V6c0-1.1-.9-2-2-2zm0 4l-8 5-8-5V6l8 5 8-5v2z" fill="#A855F7" transform="scale(0.85) translate(0, -2)"/>
          <text x="22" y="12" fill="#94A3B8">pranshulmish@gmail.com</text>
        </g>

        <line x1="0" y1="148" x2="624" y2="148" stroke="rgba(255,255,255,0.06)" stroke-width="1" opacity="0">
          <animate attributeName="opacity" from="0" to="1" begin="2.9s" dur="0.3s" fill="freeze"/>
        </line>
      </g>

      <!-- ===== SKILLS SECTION (Aesthetic Pure Color Stacks) ===== -->
      <g transform="translate(28, 296)" opacity="0">
        <animate attributeName="opacity" from="0" to="1" begin="3.2s" dur="0.5s" fill="freeze"/>
        <text x="0" y="0" font-family="'Inter','Segoe UI',sans-serif" font-size="11" fill="#4B5563" letter-spacing="2" font-weight="600">TECH STACK</text>

        <!-- Row 1 -->
        <g transform="translate(0, 15)">
          <!-- Python -->
          <g opacity="0" transform="translate(0, 0)">
            <animate attributeName="opacity" from="0" to="1" begin="3.4s" dur="0.3s" fill="freeze"/>
            <rect width="80" height="24" rx="4" fill="#0C0E14" stroke="#3776AB" stroke-opacity="0.3" stroke-width="1"/>
            <path d="M12 6c.02.01.03.02.05.04.28.26.45.62.45 1.01v1.6H10v.4h4.4c.88 0 1.6.72 1.6 1.6v2.8c0 .88-.72 1.6-1.6 1.6H13v-1.2c0-.66-.54-1.2-1.2-1.2H8.6c-.66 0-1.2-.54-1.2-1.2V9.6h3v-.8H6.8C5.92 8.8 5.2 8.08 5.2 7.2v-2.8C5.2 3.52 5.92 2.8 6.8 2.8h3v1.6c0 .66.54 1.2 1.2 1.2h1zm-2-1.6c.33 0 .6-.27.6-.6S10.33 3.2 10 3.2s-.6.27-.6.6.27.6.6.6zM10 14c-.33 0-.6.27-.6.6.27.6.6.6.6-.27.6-.6-.27-.6-.6-.6z" fill="#3776AB" transform="translate(4, 2) scale(0.95)"/>
            <text x="24" y="16" font-family="'SF Mono',monospace" font-size="10" fill="#E2E8F0" font-weight="600">Python</text>
          </g>

          <!-- C/C++ -->
          <g opacity="0" transform="translate(86, 0)">
            <animate attributeName="opacity" from="0" to="1" begin="3.5s" dur="0.3s" fill="freeze"/>
            <rect width="72" height="24" rx="4" fill="#0A0D14" stroke="#00599C" stroke-opacity="0.3" stroke-width="1"/>
            <path d="M12 4a6 6 0 100 12A6 6 0 0012 4zm0 9a3 3 0 110-6h1.5v1.2H12a1.8 1.8 0 100 3.6h1.5V13H12z" fill="#00599C" transform="translate(4, 2) scale(0.95)"/>
            <text x="22" y="16" font-family="'SF Mono',monospace" font-size="10" fill="#E2E8F0" font-weight="600">C/C++</text>
          </g>

          <!-- TensorFlow -->
          <g opacity="0" transform="translate(164, 0)">
            <animate attributeName="opacity" from="0" to="1" begin="3.6s" dur="0.3s" fill="freeze"/>
            <rect width="98" height="24" rx="4" fill="#140D05" stroke="#FF6F00" stroke-opacity="0.3" stroke-width="1"/>
            <path d="M10 2L5 4.8v5.8l5 2.8 5-2.8V4.8L10 2zm0 1.8l3.4 1.9v4L10 11.6l-3.4-1.9v-4L10 3.8z" fill="#FF6F00" transform="translate(4, 2) scale(0.95)"/>
            <text x="22" y="16" font-family="'SF Mono',monospace" font-size="10" fill="#E2E8F0" font-weight="600">TensorFlow</text>
          </g>

          <!-- PyTorch -->
          <g opacity="0" transform="translate(268, 0)">
            <animate attributeName="opacity" from="0" to="1" begin="3.7s" dur="0.3s" fill="freeze"/>
            <rect width="80" height="24" rx="4" fill="#140A07" stroke="#EE4C2C" stroke-opacity="0.3" stroke-width="1"/>
            <path d="M10 2.5C7.2 5.5 6.5 8 7.5 9.5c1 1.5 3.5 1.5 4 0s.5-2 0-3.5c-.8-1.5-1.5-2-1.5-3.5z" fill="#EE4C2C" transform="translate(4, 2) scale(0.95)"/>
            <text x="22" y="16" font-family="'SF Mono',monospace" font-size="10" fill="#E2E8F0" font-weight="600">PyTorch</text>
          </g>

          <!-- Docker -->
          <g opacity="0" transform="translate(354, 0)">
            <animate attributeName="opacity" from="0" to="1" begin="3.8s" dur="0.3s" fill="freeze"/>
            <rect width="78" height="24" rx="4" fill="#0A0E14" stroke="#2496ED" stroke-opacity="0.3" stroke-width="1"/>
            <path d="M5 9c0-1.5 1-2.5 2.5-2.5h5C14 6.5 15 7.5 15 9s-1 2.5-2.5 2.5h-5C6 11.5 5 10.5 5 9z" fill="#2496ED" transform="translate(4, 2) scale(0.95)"/>
            <text x="24" y="16" font-family="'SF Mono',monospace" font-size="10" fill="#E2E8F0" font-weight="600">Docker</text>
          </g>

          <!-- Linux -->
          <g opacity="0" transform="translate(438, 0)">
            <animate attributeName="opacity" from="0" to="1" begin="3.9s" dur="0.3s" fill="freeze"/>
            <rect width="70" height="24" rx="4" fill="#141205" stroke="#FCC624" stroke-opacity="0.3" stroke-width="1"/>
            <path d="M10 3c-1.8 0-3 1.2-3 3 0 1.2.8 2.2 1.5 3C7 10 6 11.5 6 13.5c0 1.5 1 2.5 4 2.5s4-1 4-2.5c0-2-1-3.5-2.5-4.5.7-.8 1.5-1.8 1.5-3 0-1.8-1.2-3-3-3z" fill="#FCC624" transform="translate(4, 2) scale(0.95)"/>
            <text x="24" y="16" font-family="'SF Mono',monospace" font-size="10" fill="#E2E8F0" font-weight="600">Linux</text>
          </g>
        </g>

        <!-- Row 2 -->
        <g transform="translate(0, 48)">
          <!-- React -->
          <g opacity="0" transform="translate(0, 0)">
            <animate attributeName="opacity" from="0" to="1" begin="4.1s" dur="0.3s" fill="freeze"/>
            <rect width="72" height="24" rx="4" fill="#0A1314" stroke="#61DAFB" stroke-opacity="0.3" stroke-width="1"/>
            <g transform="translate(10, 12)">
              <ellipse rx="7" ry="2.5" fill="none" stroke="#61DAFB" stroke-width="1"/>
              <ellipse rx="7" ry="2.5" fill="none" stroke="#61DAFB" stroke-width="1" transform="rotate(60)"/>
              <ellipse rx="7" ry="2.5" fill="none" stroke="#61DAFB" stroke-width="1" transform="rotate(120)"/>
              <circle r="1" fill="#61DAFB"/>
            </g>
            <text x="24" y="16" font-family="'SF Mono',monospace" font-size="10" fill="#E2E8F0" font-weight="600">React</text>
          </g>

          <!-- Node.js -->
          <g opacity="0" transform="translate(78, 0)">
            <animate attributeName="opacity" from="0" to="1" begin="4.2s" dur="0.3s" fill="freeze"/>
            <rect width="80" height="24" rx="4" fill="#0B140A" stroke="#339933" stroke-opacity="0.3" stroke-width="1"/>
            <path d="M10 4l5.5 3v6L10 16l-5.5-3V7L10 4z" fill="#339933" transform="translate(4, 2) scale(0.95)"/>
            <text x="22" y="16" font-family="'SF Mono',monospace" font-size="10" fill="#E2E8F0" font-weight="600">Node.js</text>
          </g>

          <!-- TypeScript -->
          <g opacity="0" transform="translate(164, 0)">
            <animate attributeName="opacity" from="0" to="1" begin="4.3s" dur="0.3s" fill="freeze"/>
            <rect width="96" height="24" rx="4" fill="#0A0E14" stroke="#3178C6" stroke-opacity="0.3" stroke-width="1"/>
            <rect x="4" y="5" width="12" height="12" rx="1" fill="#3178C6"/>
            <text x="17" y="13" font-family="sans-serif" font-size="7" font-weight="900" fill="#000000" letter-spacing="-0.5">TS</text>
            <text x="22" y="16" font-family="'SF Mono',monospace" font-size="10" fill="#E2E8F0" font-weight="600">TypeScript</text>
          </g>

          <!-- ESP32 -->
          <g opacity="0" transform="translate(266, 0)">
            <animate attributeName="opacity" from="0" to="1" begin="4.4s" dur="0.3s" fill="freeze"/>
            <rect width="68" height="24" rx="4" fill="#140A0A" stroke="#E7352C" stroke-opacity="0.3" stroke-width="1"/>
            <rect x="4" y="6" width="10" height="10" rx="1.5" fill="none" stroke="#E7352C" stroke-width="1.2"/>
            <line x1="2" y1="8" x2="4" y2="8" stroke="#E7352C" stroke-width="1"/>
            <line x1="2" y1="11" x2="4" y2="11" stroke="#E7352C" stroke-width="1"/>
            <line x1="2" y1="14" x2="4" y2="14" stroke="#E7352C" stroke-width="1"/>
            <text x="20" y="16" font-family="'SF Mono',monospace" font-size="10" fill="#E2E8F0" font-weight="600">ESP32</text>
          </g>

          <!-- Raspberry Pi -->
          <g opacity="0" transform="translate(340, 0)">
            <animate attributeName="opacity" from="0" to="1" begin="4.5s" dur="0.3s" fill="freeze"/>
            <rect width="64" height="24" rx="4" fill="#140A0F" stroke="#A22846" stroke-opacity="0.3" stroke-width="1"/>
            <circle cx="10" cy="12" r="3.5" fill="#A22846"/>
            <path d="M9 7c0 1 .5 2 1 2s1-1 1-2" fill="none" stroke="#22C55E" stroke-width="1.2"/>
            <text x="20" y="16" font-family="'SF Mono',monospace" font-size="10" fill="#E2E8F0" font-weight="600">RPi</text>
          </g>

          <!-- Git -->
          <g opacity="0" transform="translate(410, 0)">
            <animate attributeName="opacity" from="0" to="1" begin="4.6s" dur="0.3s" fill="freeze"/>
            <rect width="56" height="24" rx="4" fill="#140B0A" stroke="#F05032" stroke-opacity="0.3" stroke-width="1"/>
            <g transform="translate(4, 4) scale(0.8)">
              <circle cx="10" cy="5" r="2.2" fill="#F05032"/>
              <circle cx="6" cy="12" r="2.2" fill="#F05032"/>
              <circle cx="14" cy="12" r="2.2" fill="#F05032"/>
              <path d="M10 5L6 12M10 5l4 7" fill="none" stroke="#F05032" stroke-width="1.2"/>
            </g>
            <text x="22" y="16" font-family="'SF Mono',monospace" font-size="10" fill="#E2E8F0" font-weight="600">Git</text>
          </g>

          <!-- AWS -->
          <g opacity="0" transform="translate(472, 0)">
            <animate attributeName="opacity" from="0" to="1" begin="4.7s" dur="0.3s" fill="freeze"/>
            <rect width="56" height="24" rx="4" fill="#14100A" stroke="#FF9900" stroke-opacity="0.3" stroke-width="1"/>
            <path d="M6 14s2 2 4 2 4-2 4-2" fill="none" stroke="#FF9900" stroke-width="1.2" stroke-linecap="round" transform="translate(0, -2)"/>
            <text x="20" y="16" font-family="'SF Mono',monospace" font-size="10" fill="#E2E8F0" font-weight="600">AWS</text>
          </g>
        </g>
      </g>

      <!-- ===== FEATURED PROJECTS ===== -->
      <g transform="translate(28, 420)" opacity="0">
        <animate attributeName="opacity" from="0" to="1" begin="5.0s" dur="0.5s" fill="freeze"/>
        <line x1="0" y1="0" x2="624" y2="0" stroke="rgba(255,255,255,0.06)" stroke-width="1"/>
        <text x="0" y="24" font-family="'Inter','Segoe UI',sans-serif" font-size="11" fill="#4B5563" letter-spacing="2" font-weight="600">FEATURED PROJECTS</text>

        <g transform="translate(0, 38)">
          <!-- CEO Project -->
          <rect x="0" y="0" width="200" height="58" rx="8" fill="#0D0D0D" stroke="rgba(255,255,255,0.06)" stroke-width="1"/>
          <text x="12" y="20" font-family="'SF Mono',monospace" font-size="11" fill="#F8FAFC" font-weight="600">CEO</text>
          <text x="12" y="38" font-family="'Inter',sans-serif" font-size="9.5" fill="#64748B">LLM Code Enforcer</text>
          <text x="12" y="50" font-family="'SF Mono',monospace" font-size="8" fill="#22D3EE">Python · Qwen2.5</text>

          <!-- ESP32-CAM LLM -->
          <rect x="212" y="0" width="200" height="58" rx="8" fill="#0D0D0D" stroke="rgba(255,255,255,0.06)" stroke-width="1"/>
          <text x="224" y="20" font-family="'SF Mono',monospace" font-size="11" fill="#F8FAFC" font-weight="600">ESP32 LLM</text>
          <text x="224" y="38" font-family="'Inter',sans-serif" font-size="9.5" fill="#64748B">Llama 2 on MCU</text>
          <text x="224" y="50" font-family="'SF Mono',monospace" font-size="8" fill="#7C3AED">C · TinyML</text>

          <!-- SynapSense -->
          <rect x="424" y="0" width="200" height="58" rx="8" fill="#0D0D0D" stroke="rgba(255,255,255,0.06)" stroke-width="1"/>
          <text x="436" y="20" font-family="'SF Mono',monospace" font-size="11" fill="#F8FAFC" font-weight="600">SynapSense</text>
          <text x="436" y="38" font-family="'Inter',sans-serif" font-size="9.5" fill="#64748B">Edge AI Platform</text>
          <text x="436" y="50" font-family="'SF Mono',monospace" font-size="8" fill="#10B981">AIoT · Systems</text>
        </g>
      </g>

      <!-- ===== SOCIAL ICONS (Vector) ===== -->
      <g transform="translate(28, 518)" opacity="0">
        <animate attributeName="opacity" from="0" to="1" begin="5.3s" dur="0.5s" fill="freeze"/>

        <!-- GitHub Icon -->
        <g filter="url(#glow)" opacity="0.7">
          <animate attributeName="opacity" values="0.7;1;0.7" dur="3s" repeatCount="indefinite"/>
          <circle cx="12" cy="12" r="14" fill="none" stroke="rgba(124,58,237,0.25)" stroke-width="0.5"/>
          <path d="M12 2C6.48 2 2 6.48 2 12c0 4.42 2.87 8.17 6.84 9.5.5.08.66-.23.66-.5v-1.69c-2.77.6-3.36-1.34-3.36-1.34-.46-1.16-1.11-1.47-1.11-1.47-.91-.62.07-.6.07-.6 1 .07 1.53 1.03 1.53 1.03.87 1.52 2.34 1.07 2.91.83.09-.65.35-1.09.63-1.34-2.22-.25-4.55-1.11-4.55-4.93 0-1.09.39-1.98 1.03-2.68-.1-.25-.45-1.27.1-2.64 0 0 .84-.27 2.75 1.02A9.56 9.56 0 0112 6.8c.85.004 1.71.115 2.51.34 1.91-1.29 2.75-1.02 2.75-1.02.55 1.37.2 2.39.1 2.64.64.7 1.03 1.59 1.03 2.68 0 3.84-2.34 4.68-4.57 4.93.36.31.68.92.68 1.85v2.74c0 .27.16.59.67.5A10.02 10.02 0 0022 12c0-5.52-4.48-10-10-10z" fill="#C4B5FD" transform="translate(2,2) scale(0.82)"/>
        </g>

        <!-- LinkedIn Icon -->
        <g transform="translate(44, 0)" filter="url(#glow)" opacity="0.7">
          <animate attributeName="opacity" values="0.7;1;0.7" dur="3.5s" repeatCount="indefinite"/>
          <circle cx="12" cy="12" r="14" fill="none" stroke="rgba(34,211,238,0.25)" stroke-width="0.5"/>
          <path d="M4 6.5C4 5.12 5.12 4 6.5 4h11C18.88 4 20 5.12 20 6.5v11c0 1.38-1.12 2.5-2.5 2.5h-11C5.12 20 4 18.88 4 17.5v-11zM8 17V10h-2v7h2zm-1-8c.69 0 1.25-.56 1.25-1.25S7.69 6.5 7 6.5 5.75 7.06 5.75 7.75 6.31 9 7 9zm4 8v-3.5c0-1 .5-1.5 1.25-1.5s1.25.5 1.25 1.5V17h2v-4c0-2-1-3-2.5-3-1 0-1.75.5-2 1V10H9v7h2z" fill="#67E8F9" transform="translate(2,2) scale(0.82)"/>
        </g>

        <!-- Twitter/X Icon -->
        <g transform="translate(88, 0)" filter="url(#glow)" opacity="0.7">
          <animate attributeName="opacity" values="0.7;1;0.7" dur="4s" repeatCount="indefinite"/>
          <circle cx="12" cy="12" r="14" fill="none" stroke="rgba(16,185,129,0.25)" stroke-width="0.5"/>
          <path d="M13.81 10.24L20.68 3h-1.63l-5.97 6.28L8.33 3H3l7.2 9.48L3 20h1.63l6.3-6.62L15.67 20H21l-7.19-9.76zm-2.23 2.34l-.73-.94L5.26 4.16h2.5l4.69 6.06.73.95 6.1 7.88h-2.5l-4.97-6.47z" fill="#6EE7B7" transform="translate(3,3) scale(0.75)"/>
        </g>

        <!-- Portfolio Icon -->
        <g transform="translate(132, 0)" filter="url(#glow)" opacity="0.7">
          <animate attributeName="opacity" values="0.7;1;0.7" dur="3.2s" repeatCount="indefinite"/>
          <circle cx="12" cy="12" r="14" fill="none" stroke="rgba(124,58,237,0.25)" stroke-width="0.5"/>
          <circle cx="12" cy="12" r="7" fill="none" stroke="#C4B5FD" stroke-width="1.2"/>
          <ellipse cx="12" cy="12" rx="3" ry="7" fill="none" stroke="#C4B5FD" stroke-width="0.8"/>
          <line x1="5" y1="12" x2="19" y2="12" stroke="#C4B5FD" stroke-width="0.8"/>
        </g>

        <!-- Status Indicator -->
        <circle cx="185" cy="12" r="3.5" fill="#10B981" opacity="0.9">
          <animate attributeName="opacity" values="0.6;1;0.6" dur="2s" repeatCount="indefinite"/>
        </circle>
        <text x="195" y="16" font-family="'SF Mono',monospace" font-size="10" fill="#4B5563">Available for collaboration</text>
      </g>
    </g>

    <!-- ==================== BOTTOM ACCENT LINE ==================== -->
    <rect x="0" y="606" width="1180" height="4" fill="url(#accentGrad)" opacity="0.65">
      <animate attributeName="opacity" values="0.4;0.9;0.4" dur="3s" repeatCount="indefinite"/>
    </rect>
  </g>
</svg>